<?xml version="1.0" standalone="no"?>
<!DOCTYPE svg PUBLIC "-//W3C//DTD SVG 20010904//EN"
 "http://www.w3.org/TR/2001/REC-SVG-20010904/DTD/svg10.dtd">
<svg version="1.0" xmlns="http://www.w3.org/2000/svg"
 width="640.000000pt" height="480.000000pt" viewBox="0 0 640.000000 480.000000"
 preserveAspectRatio="xMidYMid meet">

<g transform="translate(0.000000,480.000000) scale(0.100000,-0.100000)"
fill="#000000" stroke="none">
<path d="M0 4709 c0 -95 0 -96 59 -66 19 9 39 17 46 17 6 0 16 5 23 12 17 17
42 19 42 2 0 -8 -7 -14 -15 -14 -8 0 -15 -4 -15 -9 0 -6 -14 -18 -30 -28 -17
-9 -30 -25 -30 -35 0 -10 -6 -18 -14 -18 -8 0 -21 -3 -29 -6 -9 -3 -18 4 -23
18 -5 13 -10 -260 -11 -661 -2 -376 -1 -686 1 -689 10 -9 76 -10 76 -1 0 6 40
10 98 9 53 0 138 2 187 4 83 5 86 4 30 -4 -88 -14 -88 -17 5 -24 109 -8 300
-2 415 15 98 14 102 14 223 11 65 -2 82 -5 82 -17 0 -9 9 -15 24 -15 14 0 28
-4 31 -10 3 -5 16 -10 29 -10 12 0 26 -3 30 -7 11 -11 126 -12 126 -2 0 5 -19
10 -42 10 -24 1 -33 4 -22 6 25 5 118 -8 223 -32 40 -9 75 -14 77 -12 2 2 0
107 -6 233 -5 126 -13 294 -16 374 -15 417 -34 754 -42 759 -12 8 -32 68 -24
75 3 4 7 52 9 106 l3 100 -171 0 -170 0 7 -97 c3 -54 9 -101 11 -105 2 -5 15
-8 27 -8 16 0 26 -7 30 -22 12 -47 8 -58 -24 -58 -28 0 -30 -2 -30 -37 1 -67
28 -341 35 -352 3 -7 41 -11 91 -11 84 0 84 0 84 -26 0 -20 -4 -25 -16 -20
-11 4 -18 -1 -21 -14 -5 -17 -14 -20 -64 -20 -48 0 -57 3 -53 15 4 9 0 15 -9
15 -12 0 -15 -8 -10 -34 4 -27 -4 -55 -43 -136 -45 -94 -49 -99 -60 -78 -7 13
-10 26 -7 31 8 14 -8 98 -18 92 -5 -4 -9 -2 -9 4 0 5 5 11 11 13 8 3 9 20 4
56 l-7 52 -51 0 c-51 -1 -51 -1 -27 -16 23 -14 21 -14 -40 -8 -36 3 -78 12
-95 20 -26 13 -31 13 -41 -1 -6 -8 -21 -15 -32 -15 -14 0 -20 -5 -16 -14 4
-11 0 -13 -15 -9 -14 4 -21 13 -21 30 0 19 -4 24 -16 19 -11 -4 -14 -1 -12 11
4 20 11 21 201 29 l157 7 0 66 c-1 36 -5 100 -11 141 -6 41 -11 85 -12 97 -1
12 -5 24 -9 28 -3 4 -4 22 -1 41 4 25 2 35 -11 40 -18 7 -22 64 -6 80 6 6 8
45 4 102 l-7 92 -87 0 c-79 0 -92 -3 -155 -35 -131 -65 -145 -65 -145 3 0 26
-4 32 -21 32 -11 0 -30 -5 -42 -12 -12 -7 -33 -12 -46 -12 -14 -1 -27 -9 -32
-21 -8 -20 -8 -20 -8 0 -2 37 -21 45 -113 45 -87 0 -88 0 -88 -25 0 -14 -4
-25 -10 -25 -5 0 -10 11 -10 25 0 24 -3 25 -60 25 -47 0 -60 -3 -60 -15 0 -20
-16 -19 -24 1 -5 12 -20 15 -76 12 l-70 -2 0 -87z m105 61 c-3 -5 -10 -10 -16
-10 -5 0 -9 5 -9 10 0 6 7 10 16 10 8 0 12 -4 9 -10z m1152 -46 c-3 -3 -12 -4
-19 -1 -8 3 -5 6 6 6 11 1 17 -2 13 -5z m-1177 -13 c0 -11 -39 -25 -47 -18 -3
3 -2 10 2 16 8 13 45 15 45 2z m693 2 c-7 -2 -21 -2 -30 0 -10 3 -4 5 12 5 17
0 24 -2 18 -5z m590 0 c-7 -2 -19 -2 -25 0 -7 3 -2 5 12 5 14 0 19 -2 13 -5z
m-1286 -39 c-3 -3 -12 -4 -19 -1 -8 3 -5 6 6 6 11 1 17 -2 13 -5z m381 -6 c-3
-7 -20 -13 -38 -13 -18 0 -35 6 -37 13 -3 8 8 12 37 12 29 0 40 -4 38 -12z
m316 -57 c3 -5 8 -24 11 -44 5 -29 3 -35 -16 -40 -46 -12 -67 16 -53 71 6 22
47 32 58 13z m170 -1 c13 0 17 -5 13 -19 -2 -10 -1 -25 4 -33 13 -24 -5 -41
-39 -33 -31 6 -42 26 -42 74 0 19 4 22 23 17 12 -3 30 -6 41 -6z m478 -60 l4
-40 -43 0 c-39 0 -43 2 -43 25 0 14 0 28 -1 33 0 4 10 10 23 14 49 13 56 10
60 -32z m-1255 -12 c-3 -8 -6 -5 -6 6 -1 11 2 17 5 13 3 -3 4 -12 1 -19z m314
1 c22 -35 11 -49 -41 -49 -43 0 -50 3 -50 20 0 11 6 20 13 21 10 0 10 2 0 6
-7 2 -13 9 -13 13 0 14 81 4 91 -11z m355 -44 c1 -8 -2 -13 -7 -9 -5 3 -9 12
-9 21 0 19 13 9 16 -12z m162 -23 c5 -17 -26 -26 -43 -12 -8 7 -15 16 -15 21
0 13 53 5 58 -9z m27 -52 c8 -13 -15 -13 -35 0 -12 8 -11 10 7 10 12 0 25 -4
28 -10z m-625 -35 c0 -15 -26 -20 -54 -9 -28 11 -17 24 19 24 24 0 35 -5 35
-15z m648 -3 c2 -7 -2 -10 -12 -6 -9 3 -16 11 -16 16 0 13 23 5 28 -10z m-655
-32 c9 0 17 -5 17 -11 0 -15 -73 -6 -78 10 -4 10 1 12 19 8 13 -4 32 -7 42 -7z
m53 -40 c43 0 74 -4 74 -10 0 -6 -37 -10 -90 -10 -76 0 -90 3 -90 16 0 11 5
14 16 10 9 -3 49 -6 90 -6z m481 -32 c-3 -7 -5 -2 -5 12 0 14 2 19 5 13 2 -7
2 -19 0 -25z m-467 -18 c0 -6 -27 -10 -60 -10 -33 0 -60 4 -60 10 0 6 27 10
60 10 33 0 60 -4 60 -10z m818 -22 c20 -20 14 -38 -13 -38 -20 0 -25 5 -25 25
0 27 18 33 38 13z m142 -3 c0 -19 -36 -39 -45 -25 -11 18 3 40 25 40 11 0 20
-7 20 -15z m-850 -15 c0 -6 -43 -10 -109 -10 -63 0 -112 4 -116 10 -4 6 35 10
109 10 71 0 116 -4 116 -10z m15 -40 c4 -6 -37 -10 -114 -10 -74 0 -121 4
-121 10 0 6 45 10 114 10 66 0 117 -4 121 -10z m-47 -40 c13 0 20 -4 17 -10
-4 -6 -23 -8 -43 -6 -20 3 -63 5 -94 5 -36 1 -58 5 -58 12 0 8 24 10 78 6 42
-4 87 -6 100 -7z m-115 -87 c-7 -2 -21 -2 -30 0 -10 3 -4 5 12 5 17 0 24 -2
18 -5z m987 -34 c0 -5 -7 -9 -15 -9 -15 0 -20 12 -9 23 8 8 24 -1 24 -14z
m-997 -6 c-7 -2 -19 -2 -25 0 -7 3 -2 5 12 5 14 0 19 -2 13 -5z m27 -32 c0 -4
-11 -6 -25 -3 -14 2 -25 6 -25 8 0 2 11 4 25 4 14 0 25 -4 25 -9z m890 -20 c0
-6 -4 -13 -10 -16 -5 -3 -10 1 -10 9 0 9 5 16 10 16 6 0 10 -4 10 -9z m50 -6
c0 -8 -7 -15 -15 -15 -16 0 -20 12 -8 23 11 12 23 8 23 -8z m40 0 c0 -8 -4
-15 -10 -15 -5 0 -10 7 -10 15 0 8 5 15 10 15 6 0 10 -7 10 -15z m-993 -11
c-3 -3 -12 -4 -19 -1 -8 3 -5 6 6 6 11 1 17 -2 13 -5z m-1 -42 c-10 -2 -22 0
-28 6 -6 6 0 7 19 4 21 -5 23 -7 9 -10z m79 -32 c31 -7 24 -7 -30 -3 -38 3
-72 7 -74 9 -8 7 64 3 104 -6z m305 -4 c0 -19 -16 -36 -34 -36 -17 0 -18 2 -6
10 8 5 11 10 7 10 -15 0 4 20 19 20 8 0 14 -2 14 -4z m455 -150 c3 -50 10 -95
15 -101 7 -8 37 -11 85 -9 l75 3 0 -39 0 -38 -70 -7 -71 -7 -42 36 c-23 20
-59 51 -81 69 -34 30 -37 36 -27 55 6 12 21 22 32 22 17 0 19 5 14 34 -5 25 0
46 21 87 l28 53 8 -34 c3 -19 9 -75 13 -124z m-772 117 c-13 -2 -33 -2 -45 0
-13 2 -3 4 22 4 25 0 35 -2 23 -4z m17 -148 c0 -39 -14 -47 -24 -12 -9 35 -7
47 9 47 10 0 15 -11 15 -35z m880 -30 c0 -8 -9 -13 -20 -12 -23 1 -25 8 -8 25
13 13 28 7 28 -13z m-476 -4 c16 -18 16 -19 -6 -23 -33 -6 -48 1 -48 23 0 25
31 25 54 0z m69 3 c-4 -13 -26 -11 -30 3 -2 6 4 10 14 9 10 -2 17 -7 16 -12z
m77 -9 c0 -7 -9 -15 -20 -18 -14 -4 -20 0 -20 12 0 10 3 20 6 24 9 9 34 -4 34
-18z m65 -75 c4 -6 12 -9 18 -8 7 2 28 -8 47 -22 l35 -25 -70 -5 c-38 -3 -73
-4 -77 -2 -9 3 23 72 33 72 4 0 11 -5 14 -10z m-115 -35 c-14 -17 -130 -22
-130 -5 0 18 131 44 138 27 2 -4 -2 -14 -8 -22z m-238 -191 c-11 -8 -12 -13
-4 -18 15 -9 16 -26 2 -26 -5 0 -16 14 -25 30 -13 25 -13 30 -1 30 7 0 17 10
21 23 l7 22 7 -25 c5 -17 3 -28 -7 -36z m25 -26 c-3 -8 -6 -5 -6 6 -1 11 2 17
5 13 3 -3 4 -12 1 -19z m-267 2 c13 -8 13 -10 -2 -10 -9 0 -20 5 -23 10 -8 13
5 13 25 0z m-114 -45 c-11 -8 -27 -15 -35 -15 -9 1 -2 7 14 15 39 18 44 18 21
0z m87 -12 c-7 -2 -19 -2 -25 0 -7 3 -2 5 12 5 14 0 19 -2 13 -5z m55 -30
c-16 -2 -40 -2 -55 0 -16 2 -3 4 27 4 30 0 43 -2 28 -4z"/>
<path d="M1840 4787 c0 -9 53 -26 154 -50 143 -35 155 -36 182 -22 61 31 206
13 218 -28 7 -21 7 -22 17 -2 8 18 9 17 5 -5 -2 -14 -7 -33 -11 -44 -7 -17 -4
-18 31 -13 44 7 190 22 334 37 52 5 140 18 195 28 55 11 188 30 294 42 199 22
231 30 231 55 0 18 -21 20 -38 3 -9 -9 -12 -9 -12 0 0 18 -108 13 -119 -5 -6
-12 -10 -12 -20 1 -15 18 -61 22 -61 6 0 -5 -9 -10 -20 -10 -10 0 -23 -8 -29
-17 -7 -14 -12 -15 -24 -4 -13 10 -17 9 -27 -6 -8 -13 -13 -14 -16 -6 -6 15
-55 7 -66 -11 -8 -12 -88 -15 -105 -3 -7 5 -15 1 -22 -10 -9 -15 -12 -16 -20
-4 -7 11 -15 11 -41 2 -18 -6 -34 -11 -35 -11 -1 0 -15 11 -30 25 -25 20 -26
25 -12 30 9 4 20 4 26 1 5 -4 12 -2 16 4 8 13 55 13 55 0 0 -5 -4 -10 -10 -10
-5 0 -10 -4 -10 -10 0 -11 59 -2 77 12 7 5 21 7 33 3 12 -4 27 -1 35 5 8 6 18
9 24 6 5 -3 11 1 15 9 5 13 -68 15 -604 15 -495 0 -610 -2 -610 -13z m898 -62
c-2 -11 -12 -21 -23 -23 -11 -2 -27 -6 -35 -9 -8 -3 -21 -5 -27 -4 -7 1 -13
-2 -13 -6 0 -4 -28 -9 -63 -10 -34 -1 -79 -4 -99 -6 -21 -2 -38 0 -38 5 0 13
45 27 70 21 16 -4 23 0 27 16 4 15 13 21 32 20 14 -1 37 3 50 8 13 5 46 9 73
9 43 -1 48 -3 46 -21z"/>
<path d="M2640 4720 c0 -5 10 -10 23 -10 18 0 19 2 7 10 -19 13 -30 13 -30 0z"/>
<path d="M2553 4705 c4 -11 47 -8 61 5 5 5 -7 8 -28 7 -20 -1 -34 -6 -33 -12z"/>
<path d="M3118 4793 c6 -2 18 -2 25 0 6 3 1 5 -13 5 -14 0 -19 -2 -12 -5z"/>
<path d="M3590 4790 c0 -11 60 -11 105 0 23 6 15 8 -37 9 -40 1 -68 -3 -68 -9z"/>
<path d="M3890 4785 c-36 -8 -95 -13 -131 -13 -36 0 -74 -4 -85 -10 -10 -5
-32 -14 -49 -19 l-30 -8 -5 -95 -5 -95 -52 -3 c-29 -2 -53 -7 -53 -11 0 -5
-11 -8 -25 -7 -14 0 -25 7 -25 15 0 9 8 11 25 7 l25 -6 0 94 0 94 -27 -3 c-16
-1 -41 -5 -58 -8 -16 -4 -82 -13 -145 -22 -63 -8 -126 -17 -140 -20 -14 -3
-67 -7 -119 -10 -52 -2 -97 -8 -100 -12 -3 -4 -14 -8 -23 -9 -49 -2 -58 -5
-58 -19 0 -17 -12 -19 -26 -5 -7 7 -51 7 -135 0 -204 -16 -240 -22 -246 -37
-4 -10 -17 -12 -56 -7 -34 5 -48 4 -43 -4 8 -13 -22 -44 -35 -37 -5 4 -9 15
-9 25 0 20 -23 26 -102 29 -44 1 -88 17 -88 31 0 6 4 9 9 5 5 -3 12 -1 16 5 4
6 -5 10 -19 10 -15 0 -65 14 -113 30 -122 42 -125 42 -119 -22 3 -29 10 -213
16 -408 12 -416 37 -1021 46 -1101 3 -30 9 -61 13 -68 5 -7 36 -15 70 -18 l61
-6 0 49 c0 56 -6 69 -38 79 -40 12 -61 59 -56 124 9 101 15 141 23 141 5 0 6
-12 4 -27 l-4 -28 15 25 14 25 8 -29 c4 -17 2 -36 -4 -46 -8 -13 -7 -21 1 -29
19 -19 24 -13 30 38 3 27 18 82 32 122 14 41 38 107 52 148 24 67 31 77 87
118 l61 45 79 -6 c69 -5 92 -12 190 -60 61 -31 124 -67 139 -82 45 -41 87
-146 66 -160 -5 -3 -9 -18 -9 -35 0 -32 -2 -34 -32 -18 -11 6 -50 15 -87 21
-134 20 -157 10 -146 -61 4 -25 14 -54 23 -65 26 -28 90 -58 126 -57 110 1
118 4 129 46 2 11 5 0 6 -25 1 -48 -15 -120 -27 -120 -4 0 -13 -13 -19 -30
-10 -27 -15 -30 -56 -30 -39 0 -49 5 -75 34 -17 19 -35 43 -41 53 -9 16 -12
16 -20 3 -13 -20 -115 -28 -178 -15 -29 6 -33 5 -33 -13 0 -11 6 -27 12 -34
46 -48 46 -48 -32 -48 -71 0 -72 1 -65 23 4 12 8 33 8 47 1 14 7 31 14 38 20
20 5 34 -20 20 -33 -17 -95 -69 -101 -83 -2 -7 0 -32 6 -56 16 -70 16 -73 17
-96 1 -14 7 -23 17 -23 16 0 16 13 -2 73 -7 24 21 22 57 -4 l30 -21 -7 26 c-5
23 -3 26 18 26 21 0 84 -17 188 -50 l25 -8 -28 -11 c-16 -6 -26 -15 -22 -21 3
-5 12 -7 20 -3 26 9 16 -13 -10 -25 -34 -16 -72 -15 -128 2 -44 13 -46 13 -37
-4 7 -13 6 -20 -2 -22 -23 -8 4 -28 58 -44 53 -15 111 -15 145 0 13 6 16 2 12
-18 -8 -41 -73 -57 -192 -46 -74 6 -83 10 -122 44 -44 41 -68 38 -53 -5 9 -27
10 -34 13 -101 1 -39 6 -52 33 -77 31 -29 31 -30 19 -72 -9 -28 -15 -38 -21
-29 -6 10 -10 8 -18 -6 -16 -31 -13 -97 5 -136 l18 -37 74 1 c41 0 76 -4 80
-10 4 -7 16 -6 36 2 17 7 33 12 37 12 35 -5 138 236 138 322 0 31 18 27 32 -5
10 -27 13 -182 8 -393 -2 -76 2 -111 20 -175 20 -66 24 -104 24 -215 1 -167
-15 -228 -75 -291 -26 -27 -37 -45 -30 -52 12 -12 3 -37 -15 -37 -8 0 -14 -4
-14 -9 0 -5 -6 -16 -12 -23 -7 -8 -22 -24 -33 -37 l-20 -23 43 7 c47 8 50 4
22 -32 -11 -14 -17 -29 -14 -34 3 -5 -4 -25 -16 -45 -22 -35 -20 -58 2 -36 17
17 31 15 25 -2 -4 -10 -1 -13 9 -9 17 6 17 9 4 34 -7 13 -7 19 0 19 5 0 10 15
10 33 1 37 26 79 34 56 5 -15 14 -80 23 -171 7 -70 -23 -148 -57 -148 -11 0
-20 -4 -20 -10 0 -5 7 -10 15 -10 19 0 19 -5 -6 -76 -11 -32 -27 -88 -35 -124
-9 -36 -22 -77 -29 -92 -9 -18 -10 -28 -3 -30 14 -5 2 -58 -13 -58 -5 0 -29
-8 -52 -19 -60 -26 -285 -39 -557 -30 -117 3 -139 2 -163 -13 -14 -10 -39 -18
-54 -19 -15 0 -22 -3 -15 -6 6 -2 10 -9 7 -14 -4 -5 1 -6 10 -2 10 3 21 0 26
-8 6 -10 9 -10 9 -1 0 25 20 11 40 -29 20 -38 22 -40 35 -22 13 17 14 16 15
-11 0 -33 2 -33 -108 13 -41 17 -82 41 -91 53 -19 23 -41 18 -41 -10 0 -12 -3
-13 -12 -4 -14 14 -48 16 -48 3 0 -5 6 -16 12 -23 7 -8 20 -27 29 -43 10 -17
31 -40 48 -51 l31 -22 -36 -4 c-25 -3 -38 1 -44 11 -5 9 -10 12 -10 6 0 -5 -4
-4 -9 3 -7 11 -9 11 -14 -2 -4 -9 -2 -16 3 -16 6 0 10 -7 10 -16 0 -12 -7 -15
-25 -11 -16 3 -24 0 -22 -7 6 -20 71 -45 122 -46 40 -1 46 -3 28 -10 -13 -5
-23 -12 -23 -16 0 -8 66 0 95 12 18 7 18 6 6 -9 -19 -24 3 -23 52 2 l37 19 0
-28 c0 -30 -24 -46 -52 -35 -17 7 -88 -37 -102 -62 -7 -13 -10 -13 -17 -2 -11
18 -49 20 -49 3 0 -7 6 -11 14 -8 8 3 16 -3 19 -16 3 -12 10 -19 16 -15 7 4
11 -3 11 -18 0 -14 6 -30 14 -37 13 -10 15 -4 18 34 4 58 21 64 29 11 4 -22
10 -55 14 -72 4 -18 4 -33 -1 -33 -17 0 -109 52 -122 68 -11 15 -14 15 -22 2
-5 -8 -11 -19 -13 -24 -2 -5 -9 -7 -16 -5 -9 3 -7 12 8 31 19 24 20 31 9 72
l-12 46 -14 -33 c-8 -17 -16 -40 -17 -50 -1 -10 -17 -33 -35 -52 l-34 -35 33
-30 c31 -29 33 -29 38 -10 7 27 21 25 29 -5 8 -33 23 -32 16 1 -3 19 -1 25 7
20 6 -4 11 -14 11 -22 0 -10 14 -14 53 -16 l52 -2 -47 -3 c-32 -3 -48 -9 -48
-17 0 -11 -8 -12 -35 -6 -41 9 -125 57 -125 70 0 13 -12 13 -45 0 l-27 -10 24
-19 c12 -11 25 -15 26 -10 7 19 21 8 27 -23 6 -24 3 -35 -11 -45 -15 -11 8
-13 144 -12 151 0 161 1 167 20 8 25 27 24 43 -1 12 -19 22 -20 235 -19 122 1
212 4 199 6 -27 5 -24 28 4 29 36 1 62 15 67 35 3 11 15 23 26 26 12 3 29 24
41 52 12 25 32 70 46 99 30 64 30 72 2 64 l-22 -5 22 23 c30 33 35 117 7 133
-8 4 -15 17 -15 28 0 14 -9 21 -30 26 -34 6 -36 9 -16 29 17 16 30 19 21 4 -4
-6 7 -15 24 -21 16 -6 42 -26 56 -45 l26 -34 -20 -29 c-21 -29 -28 -71 -13
-71 5 0 15 19 23 43 7 23 19 53 26 67 7 14 13 32 13 41 0 9 3 18 6 22 9 9 74
170 74 185 0 6 3 12 8 12 4 0 18 27 32 59 13 33 28 57 32 55 5 -3 8 6 8 20 0
16 6 26 15 26 8 0 15 8 15 18 0 10 7 28 16 40 12 17 12 22 2 22 -8 1 -5 7 7
16 24 18 25 64 6 199 -14 95 -9 303 7 314 5 3 12 27 15 53 4 25 8 52 9 59 2 8
-7 15 -18 17 -19 3 -33 26 -34 55 0 16 20 6 21 -10 1 -16 10 20 21 83 2 10 5
21 8 24 3 3 18 26 33 52 15 26 33 53 40 60 8 7 26 31 40 53 15 22 35 51 44 64
15 20 19 51 21 170 7 276 -25 415 -112 483 -22 18 -61 52 -86 76 -25 24 -51
47 -58 51 -19 11 0 54 36 80 16 11 31 19 33 17 2 -2 47 -6 99 -9 58 -3 81 -2
60 3 -23 5 11 8 95 7 72 -1 175 1 230 5 55 3 87 3 70 -2 -28 -7 -27 -8 14 -9
63 -2 48 -8 -49 -20 -130 -17 -224 -34 -230 -41 -3 -4 -25 -11 -50 -18 -40 -9
-36 -10 40 -5 47 3 88 11 92 16 4 6 37 12 75 13 60 2 63 1 23 -5 l-45 -8 38
-1 c20 -1 37 -6 37 -12 0 -15 91 -12 123 4 15 8 27 13 27 11 0 -9 -55 -55 -65
-55 -13 0 -45 -36 -45 -50 0 -6 -4 -10 -10 -10 -5 0 -10 -7 -10 -15 0 -8 -11
-21 -23 -30 -42 -27 -87 -100 -87 -140 0 -41 -23 -91 -86 -186 -42 -64 -94
-182 -94 -215 0 -9 -11 -37 -23 -63 -28 -54 -61 -150 -55 -157 3 -2 13 14 23
37 29 64 69 79 211 79 138 0 229 -19 290 -61 49 -34 79 -95 68 -143 -6 -30 -6
-30 12 -15 11 9 30 20 44 24 14 4 31 12 38 17 18 15 91 1 139 -27 53 -32 116
-117 117 -159 1 -17 -3 -50 -7 -72 -6 -37 -4 -42 13 -47 11 -3 23 0 27 5 3 6
1 8 -5 4 -13 -8 -26 10 -17 25 10 14 55 -29 55 -52 0 -20 28 -39 56 -39 15 0
15 3 -4 21 -12 11 -20 24 -17 29 3 4 -6 15 -20 24 -27 18 -58 65 -33 51 7 -5
23 -17 36 -29 13 -12 26 -20 28 -18 12 7 67 -33 99 -72 24 -29 47 -47 68 -51
99 -21 308 -81 348 -101 41 -20 115 -71 249 -171 23 -18 46 -33 50 -33 17 0
33 135 27 224 -5 76 -3 103 14 156 15 47 19 79 14 115 -3 28 -8 113 -10 190
-3 107 0 151 11 185 9 25 19 80 24 124 10 86 13 94 32 78 7 -5 40 -15 74 -22
65 -13 55 -5 156 -134 13 -16 27 -21 66 -21 27 0 61 7 77 15 25 13 28 13 44
-5 32 -40 117 -93 166 -104 51 -12 273 -9 348 5 24 4 47 17 62 36 31 37 31 42
-1 63 -19 12 -25 23 -22 39 4 17 -2 26 -25 36 -24 10 -31 10 -37 0 -5 -8 -20
-11 -41 -8 -44 7 -59 1 -59 -22 0 -10 -4 -22 -10 -25 -5 -3 -10 -2 -10 4 0 16
-46 61 -63 61 -9 0 -19 5 -22 10 -4 6 -21 8 -41 4 -27 -5 -34 -3 -34 10 0 18
-36 22 -42 5 -4 -12 -57 8 -70 26 -5 6 -8 6 -8 -2 0 -14 -40 -1 -70 22 -8 7
-40 25 -70 41 -30 16 -65 39 -77 51 -25 27 -51 29 -79 8 -26 -20 -40 -19 -65
6 -18 18 -20 30 -16 85 2 36 0 67 -4 70 -4 2 -6 11 -2 19 8 22 -11 18 -70 -12
-38 -19 -68 -27 -113 -27 -71 -1 -94 13 -94 56 l0 30 -52 -43 c-59 -50 -107
-74 -168 -84 -35 -6 -45 -13 -53 -36 -6 -16 -15 -29 -19 -29 -4 0 -8 -8 -8
-17 0 -19 -51 -53 -79 -53 -24 0 -41 20 -41 48 0 25 85 116 118 126 9 3 22 16
27 28 6 12 19 26 30 32 10 6 33 23 50 39 29 26 27 26 -36 -8 -53 -28 -72 -33
-102 -28 -73 11 -75 61 -4 106 24 16 73 58 109 96 l65 67 -21 25 c-27 31 -107
66 -173 75 -56 7 -70 25 -52 71 5 13 9 35 9 47 0 25 -41 76 -62 76 -7 0 -40
17 -73 38 -86 54 -94 57 -92 24 2 -24 -3 -28 -43 -39 -57 -15 -161 -7 -177 15
-11 13 -10 19 4 34 16 18 16 18 -4 11 -12 -4 -34 -19 -50 -33 -57 -52 -89 -71
-106 -64 -9 3 -17 14 -17 25 0 10 -6 22 -13 26 -27 16 -35 44 -24 84 9 39 27
53 27 23 0 -14 2 -14 16 -3 10 8 12 15 5 17 -10 3 -16 32 -7 32 18 0 56 -22
52 -29 -11 -17 54 -23 106 -11 46 11 52 11 61 -5 8 -15 12 -12 23 21 8 21 14
51 14 65 0 25 21 45 34 32 3 -4 6 -30 6 -59 0 -60 6 -67 38 -50 19 10 34 10
74 0 42 -11 56 -11 93 1 24 9 50 12 59 9 9 -3 16 -1 16 5 0 6 -13 11 -30 11
-16 0 -30 5 -30 10 0 6 16 10 35 10 32 0 34 2 29 28 -4 20 1 33 20 51 33 31
48 19 46 -38 -4 -70 -1 -104 10 -121 8 -12 12 -13 19 -2 6 11 10 10 15 -4 17
-43 36 25 22 77 -4 15 -3 29 2 33 5 3 13 -10 16 -29 5 -26 11 -33 23 -28 13 5
14 3 4 -15 -6 -11 -11 -38 -11 -59 0 -58 -10 -83 -36 -89 -18 -5 -25 -15 -30
-43 -11 -66 -11 -65 31 -73 94 -16 126 -27 172 -55 74 -47 145 -67 187 -53 43
14 95 -5 114 -41 7 -14 26 -33 41 -44 16 -10 36 -32 46 -47 9 -16 27 -36 41
-44 13 -9 38 -40 55 -70 18 -31 37 -54 47 -54 9 0 40 -11 67 -23 57 -27 170
-43 181 -26 4 7 24 9 50 6 l44 -4 -27 21 c-15 11 -47 35 -72 51 -25 17 -47 39
-49 50 -5 25 -30 45 -57 45 -12 0 -31 11 -43 25 -12 14 -26 25 -32 25 -5 0
-19 18 -30 41 -14 26 -33 45 -53 54 -18 7 -49 29 -69 49 -20 20 -45 36 -55 37
-33 2 51 19 142 29 50 6 115 14 145 19 30 5 93 10 140 10 47 1 120 8 163 16
94 18 119 19 97 5 -32 -20 41 -32 163 -27 87 4 117 3 117 -6 0 -7 -17 -13 -41
-14 -22 -2 -48 -7 -57 -13 -13 -9 -5 -10 33 -6 87 10 235 15 231 8 -7 -11 321
-13 346 -2 20 9 18 10 -12 6 -63 -7 -314 20 -380 40 -13 5 -13 6 0 14 12 8 10
10 -8 10 -34 0 -92 30 -92 46 0 8 10 19 23 24 12 5 16 9 9 9 -14 1 -8 157 9
244 17 87 19 84 -73 92 -46 4 -89 12 -95 17 -7 6 -27 8 -45 5 -18 -3 -90 6
-161 20 -70 14 -129 24 -132 21 -8 -8 -34 -175 -45 -292 -5 -60 -13 -112 -16
-115 -11 -11 -156 -13 -167 -2 -6 6 -20 11 -30 11 -21 0 -21 -12 1 165 12 89
48 408 78 680 8 77 21 183 29 235 8 52 19 160 25 240 7 80 16 153 21 163 7 12
7 23 0 31 -7 8 -7 16 -1 22 8 8 40 180 40 216 0 4 -88 8 -195 8 -226 0 -203
14 -207 -130 -3 -74 -5 -85 -22 -88 -15 -3 -17 0 -12 14 4 10 9 60 12 111 l6
93 -479 -1 c-349 -1 -496 -5 -543 -14z m-1789 -226 c4 -13 7 -39 8 -57 1 -27
-3 -33 -16 -30 -25 5 -44 66 -30 96 13 28 29 24 38 -9z m-123 -27 c2 -31 -1
-44 -13 -48 -9 -4 -18 -4 -21 -1 -10 10 -9 87 1 91 21 9 30 -2 33 -42z m3225
41 c-7 -2 -19 -2 -25 0 -7 3 -2 5 12 5 14 0 19 -2 13 -5z m-2245 -30 c-16 -2
-40 -2 -55 0 -16 2 -3 4 27 4 30 0 43 -2 28 -4z m155 0 c-7 -2 -21 -2 -30 0
-10 3 -4 5 12 5 17 0 24 -2 18 -5z m-314 -7 c-11 -9 -90 -16 -84 -6 3 5 25 10
47 10 23 0 39 -2 37 -4z m414 -3 c-7 -2 -21 -2 -30 0 -10 3 -4 5 12 5 17 0 24
-2 18 -5z m1717 -48 c0 -24 -30 -105 -40 -105 -11 0 -8 34 6 54 9 13 11 35 7
65 -5 43 -4 45 10 26 9 -11 17 -29 17 -40z m-2260 41 c0 -2 -7 -39 -15 -82
-25 -134 -25 -142 -15 -169 8 -20 6 -35 -6 -60 -14 -31 -14 -35 5 -66 22 -36
27 -54 12 -45 -5 3 -12 -1 -15 -10 -3 -8 -2 -13 3 -9 5 3 20 -8 34 -24 18 -22
30 -28 49 -24 27 5 58 -26 58 -58 0 -11 11 -20 30 -24 36 -8 50 0 50 26 0 28
18 24 26 -6 6 -25 24 -35 24 -14 0 5 5 7 10 4 7 -4 7 -12 0 -25 -7 -13 -7 -21
0 -25 15 -9 42 15 36 32 -6 16 10 18 20 2 3 -6 1 -15 -6 -19 -7 -4 -9 -13 -5
-20 6 -10 -12 -12 -86 -8 -97 5 -170 28 -198 61 -7 10 -20 17 -27 17 -12 0
-12 -4 -2 -20 9 -15 10 -22 1 -31 -9 -9 -18 -5 -37 14 -14 14 -26 33 -26 42 0
8 -7 15 -15 15 -8 0 -15 -7 -15 -15 0 -8 -7 -15 -15 -15 -8 0 -15 6 -15 14 0
21 11 46 19 42 3 -2 6 13 6 35 1 26 8 46 24 63 20 21 25 41 32 123 5 54 12
123 16 153 4 30 7 62 5 70 -4 28 8 60 23 60 8 0 15 -2 15 -4z m873 -3 c-7 -2
-19 -2 -25 0 -7 3 -2 5 12 5 14 0 19 -2 13 -5z m-973 -110 c-1 -20 -28 -55
-34 -45 -8 13 10 52 24 52 6 0 10 -3 10 -7z m1533 -40 c6 -34 1 -43 -22 -43
-10 0 -36 -7 -56 -16 -21 -8 -61 -19 -89 -24 -28 -5 -59 -11 -68 -15 -10 -4
-18 -3 -18 2 0 6 17 15 38 21 20 7 71 32 112 56 41 24 80 45 86 45 7 1 14 -11
17 -26z m-1503 -4 c7 -11 9 -28 5 -37 -6 -15 -8 -15 -21 2 -16 23 -19 56 -4
56 5 0 14 -9 20 -21z m688 -56 c-10 -2 -28 -2 -40 0 -13 2 -5 4 17 4 22 1 32
-1 23 -4z m1597 -25 c-3 -18 -8 -55 -10 -83 -8 -83 -17 -115 -31 -115 -8 0
-14 6 -14 14 0 7 -7 19 -15 26 -23 19 -18 33 10 26 l24 -6 -25 27 -25 27 26
15 c14 9 23 22 20 29 -6 15 24 72 38 72 4 0 5 -15 2 -32z m-2481 -14 c3 -8 2
-12 -4 -9 -6 3 -10 10 -10 16 0 14 7 11 14 -7z m-4 -28 c0 -3 -4 -8 -10 -11
-5 -3 -10 -1 -10 4 0 6 5 11 10 11 6 0 10 -2 10 -4z m353 -3 c-7 -2 -19 -2
-25 0 -7 3 -2 5 12 5 14 0 19 -2 13 -5z m-77 -17 c8 -8 14 -21 14 -28 0 -8 4
-18 9 -23 6 -6 4 -20 -4 -35 -8 -14 -14 -19 -15 -12 0 6 -6 12 -14 12 -19 0
-24 18 -18 63 5 41 7 43 28 23z m77 -23 c-7 -2 -21 -2 -30 0 -10 3 -4 5 12 5
17 0 24 -2 18 -5z m-272 -19 c38 -8 69 -19 69 -24 0 -5 -11 -22 -25 -38 -14
-17 -25 -35 -25 -41 0 -6 -7 -8 -15 -5 -8 4 -22 1 -31 -6 -11 -10 -18 -10 -26
-2 -9 9 -7 12 9 12 29 0 40 20 20 35 -10 7 -17 20 -17 29 0 9 -8 16 -21 16
-11 0 -17 4 -14 10 3 6 -1 7 -9 4 -11 -4 -16 0 -16 10 0 20 13 20 101 0z m332
9 c-7 -2 -21 -2 -30 0 -10 3 -4 5 12 5 17 0 24 -2 18 -5z m455 -10 c-15 -2
-42 -2 -60 0 -18 2 -6 4 27 4 33 0 48 -2 33 -4z m502 -9 c0 -8 -4 -12 -10 -9
-5 3 -10 10 -10 16 0 5 5 9 10 9 6 0 10 -7 10 -16z m-1375 -64 c-3 -5 -10 -10
-16 -10 -5 0 -9 5 -9 10 0 6 7 10 16 10 8 0 12 -4 9 -10z m32 -92 c-3 -8 -6
-5 -6 6 -1 11 2 17 5 13 3 -3 4 -12 1 -19z m-109 5 c-16 -2 -40 -2 -55 0 -16
2 -3 4 27 4 30 0 43 -2 28 -4z m636 -19 c9 -3 16 -9 16 -13 0 -13 -25 -9 -38
6 -14 14 -4 17 22 7z m1056 -20 c12 -32 4 -50 -16 -33 -16 13 -19 59 -4 59 6
0 15 -12 20 -26z m-1000 -8 c0 -3 -4 -8 -10 -11 -5 -3 -10 -1 -10 4 0 6 5 11
10 11 6 0 10 -2 10 -4z m1050 -69 c47 -23 72 -65 31 -54 -19 4 -20 1 -16 -30
4 -33 3 -35 -18 -28 -12 4 -40 10 -61 13 -55 10 -63 37 -9 30 38 -5 39 -5 35
23 -3 17 -10 29 -19 29 -10 0 -14 -7 -10 -20 5 -18 0 -20 -46 -21 -29 -1 -44
-3 -34 -6 29 -8 19 -22 -20 -28 -21 -3 -57 -15 -81 -26 -23 -10 -45 -19 -47
-19 -11 0 -4 30 8 31 10 0 10 2 0 6 -7 2 -13 13 -13 24 0 16 -5 18 -32 12
l-33 -6 20 23 c25 28 111 70 145 70 14 0 35 -7 47 -15 19 -13 21 -13 26 6 5
19 10 21 44 14 21 -4 58 -17 83 -28z m-920 -37 c0 -19 7 -20 163 -21 89 -1
185 -1 212 -1 35 1 44 -1 30 -7 -11 -4 -111 -6 -222 -3 l-203 5 0 23 c0 13 5
24 10 24 6 0 10 -9 10 -20z m885 -92 c7 -8 3 -9 -15 -4 -14 3 -35 6 -47 6 -13
0 -23 4 -23 9 0 11 73 3 85 -11z m-138 6 c-3 -3 -12 -4 -19 -1 -8 3 -5 6 6 6
11 1 17 -2 13 -5z m-422 -26 c6 -4 2 -8 -7 -8 -10 0 -18 7 -18 17 0 9 3 12 8
7 4 -5 12 -12 17 -16z m385 18 c0 -3 -4 -8 -10 -11 -5 -3 -10 -1 -10 4 0 6 5
11 10 11 6 0 10 -2 10 -4z m-490 -22 c0 -2 -9 -4 -20 -4 -11 0 -20 4 -20 9 0
5 9 7 20 4 11 -3 20 -7 20 -9z m53 -1 c-7 -2 -19 -2 -25 0 -7 3 -2 5 12 5 14
0 19 -2 13 -5z m-423 -85 c0 -6 -6 -5 -15 2 -8 7 -15 14 -15 16 0 2 7 1 15 -2
8 -4 15 -11 15 -16z m-23 -74 c-3 -3 -12 -4 -19 -1 -8 3 -5 6 6 6 11 1 17 -2
13 -5z m1621 -87 c3 -17 -39 -67 -56 -67 -24 0 -21 34 5 60 30 31 46 33 51 7z
m168 -33 c8 -30 -2 -44 -30 -44 -34 0 -52 25 -35 48 30 37 55 36 65 -4z
m-2753 -15 c4 -16 3 -18 -9 -8 -7 6 -11 15 -8 20 8 13 11 11 17 -12z m1597
-198 c0 -10 -7 -21 -15 -25 -11 -4 -15 1 -15 19 0 16 6 25 15 25 8 0 15 -9 15
-19z m-802 -136 c-2 -46 -24 -67 -37 -34 -10 28 5 69 25 69 9 0 13 -12 12 -35z
m714 -15 c5 0 8 -9 8 -20 0 -11 4 -20 8 -20 5 0 9 -18 10 -41 3 -71 -46 -21
-52 54 -2 18 -6 43 -10 57 -7 25 -7 25 11 -2 10 -16 21 -28 25 -28z m-1024
-29 c3 -9 0 -11 -7 -6 -7 4 -33 11 -59 15 l-47 8 54 -1 c36 -1 56 -7 59 -16z
m1509 -81 c-3 -10 0 -18 5 -17 6 1 13 -4 15 -10 3 -10 -11 -13 -54 -13 l-58 1
30 16 c17 9 34 22 38 29 12 21 30 17 24 -6z m-188 -11 c43 -15 39 -29 -8 -29
-34 0 -38 3 -34 20 3 11 6 20 8 20 1 0 16 -5 34 -11z m-1277 -31 c-7 -7 -12
-8 -12 -2 0 14 12 26 19 19 2 -3 -1 -11 -7 -17z m1361 5 c-7 -2 -21 -2 -30 0
-10 3 -4 5 12 5 17 0 24 -2 18 -5z m-746 -9 c-3 -3 -12 -4 -19 -1 -8 3 -5 6 6
6 11 1 17 -2 13 -5z m1036 -24 c7 -35 1 -56 -18 -64 -8 -3 -17 4 -21 17 -4 12
-2 23 5 25 6 2 11 15 11 28 0 34 16 30 23 -6z m-155 -22 c4 -21 -15 -26 -103
-29 -128 -4 -145 -1 -145 21 0 22 19 28 95 32 86 5 149 -5 153 -24z m-1358 -2
c0 -2 -7 -6 -15 -10 -8 -3 -15 -1 -15 4 0 6 7 10 15 10 8 0 15 -2 15 -4z m37
-2 c-3 -3 -12 -4 -19 -1 -8 3 -5 6 6 6 11 1 17 -2 13 -5z m21 -21 c-10 -2 -28
-2 -40 0 -13 2 -5 4 17 4 22 1 32 -1 23 -4z m270 0 c-16 -2 -40 -2 -55 0 -16
2 -3 4 27 4 30 0 43 -2 28 -4z m770 -16 c11 -8 11 -12 0 -19 -10 -6 -8 -13 10
-27 12 -11 22 -24 22 -30 0 -23 46 -41 107 -41 34 0 64 4 67 8 10 16 -10 28
-49 28 -40 0 -122 40 -110 53 4 3 52 7 108 8 56 1 105 2 109 2 4 1 16 10 26
21 21 23 52 18 52 -9 0 -9 9 -22 20 -29 25 -15 25 -45 1 -97 -30 -64 -59 -85
-127 -90 -75 -5 -238 13 -243 27 -2 6 -14 19 -27 30 -25 23 -40 70 -28 90 5 7
9 18 9 23 0 6 4 25 9 43 7 32 13 33 44 9z m-388 -17 c-8 -5 -22 -9 -30 -9 -10
0 -8 3 5 9 27 12 43 12 25 0z m-85 -10 c-3 -5 -14 -10 -23 -10 -15 0 -15 2 -2
10 20 13 33 13 25 0z m956 -83 c-1 -23 -7 -46 -12 -51 -11 -12 -12 12 -3 67 9
49 19 38 15 -16z m1204 -667 c3 -5 1 -10 -4 -10 -6 0 -11 5 -11 10 0 6 2 10 4
10 3 0 8 -4 11 -10z m-2864 -1057 c-8 -14 -10 -6 -7 32 6 64 8 69 13 23 2 -21
-1 -46 -6 -55z m-582 -399 c2 -2 -6 -7 -18 -12 -12 -4 -27 -19 -34 -32 -17
-34 -37 -37 -37 -5 0 47 16 65 53 58 17 -3 34 -7 36 -9z m255 -10 c9 -24 7
-54 -4 -54 -5 0 -10 5 -10 10 0 6 -11 22 -25 35 l-24 25 28 0 c17 0 31 -7 35
-16z m-278 -99 c-3 -9 0 -15 8 -15 8 0 16 -4 18 -9 5 -15 141 -17 146 -3 4 13
32 16 32 4 0 -13 -57 -52 -75 -52 -9 0 -37 -5 -62 -11 -44 -12 -45 -12 -22
-25 20 -11 21 -13 6 -14 -10 0 -16 -4 -13 -9 3 -5 0 -11 -8 -14 -9 -4 -12 -16
-9 -34 4 -24 1 -22 -18 15 -13 23 -28 42 -34 42 -6 0 -30 9 -53 20 -53 26 -58
25 -38 -5 21 -32 21 -56 0 -26 -12 16 -19 20 -27 12 -8 -8 -8 -14 1 -23 7 -7
12 -18 12 -26 0 -11 -3 -12 -14 -3 -8 7 -17 8 -20 3 -8 -13 0 -66 14 -91 6
-12 8 -21 4 -21 -4 0 0 -8 8 -17 8 -10 17 -25 20 -33 8 -23 127 -100 154 -100
13 0 26 -4 29 -10 9 -14 -34 -12 -70 4 -32 14 -49 8 -89 -26 -13 -12 -36 -18
-68 -18 -48 0 -48 0 -42 27 4 16 14 35 24 43 33 28 14 151 -25 167 -12 4 -15
28 -15 117 0 63 4 116 10 122 21 21 69 2 122 -47 29 -27 56 -49 59 -49 4 0 3
16 -1 35 -6 26 -4 39 6 50 8 7 14 18 14 24 0 6 5 11 11 11 6 0 9 -7 5 -15z
m-286 -84 c0 -22 -6 -31 -30 -41 -35 -14 -49 -8 -31 14 7 8 10 20 6 26 -3 6 3
10 14 10 12 0 21 5 21 10 0 6 5 10 10 10 6 0 10 -13 10 -29z m513 -132 c-7 -7
-36 -13 -65 -15 l-53 -3 44 9 c24 5 46 12 49 15 3 3 12 5 21 5 11 0 12 -3 4
-11z m-163 -12 c0 -7 12 -18 28 -25 15 -7 38 -19 52 -27 14 -9 39 -21 55 -27
l30 -12 -27 -4 c-36 -4 -35 -17 2 -31 35 -12 36 -16 10 -58 -27 -44 -36 -41
-32 8 3 29 1 40 -7 35 -7 -4 -11 0 -11 12 0 24 -22 44 -90 80 -61 33 -78 62
-36 62 15 0 26 -6 26 -13z m-111 -67 c38 0 81 -22 81 -41 0 -23 -35 -26 -44
-4 -3 8 -9 14 -13 14 -18 -4 -83 32 -102 57 -34 44 -24 49 19 10 22 -20 48
-36 59 -36z m141 -12 c0 -6 -6 -5 -15 2 -8 7 -15 14 -15 16 0 2 7 1 15 -2 8
-4 15 -11 15 -16z m-366 -136 c-1 -7 -2 -24 -2 -39 -2 -30 -18 -22 -24 12 -3
15 -10 19 -28 17 -21 -4 -22 -2 -11 12 15 18 67 16 65 -2z"/>
<path d="M2872 3935 c0 -16 2 -22 5 -12 2 9 2 23 0 30 -3 6 -5 -1 -5 -18z"/>
<path d="M4838 4214 c-5 -4 -8 -16 -8 -28 0 -14 3 -17 11 -9 6 6 9 19 7 28 -1
9 -6 13 -10 9z"/>
<path d="M3809 3885 c-1 -3 -2 -18 -3 -35 -1 -32 7 -35 54 -20 24 8 24 8 3 9
-18 1 -23 7 -23 26 0 16 -6 25 -15 25 -8 0 -16 -2 -16 -5z"/>
<path d="M3990 2815 l-35 -13 31 -1 c17 -1 37 6 44 14 15 18 7 18 -40 0z"/>
<path d="M2088 473 c7 -3 16 -2 19 1 4 3 -2 6 -13 5 -11 0 -14 -3 -6 -6z"/>
<path d="M1840 155 c0 -11 62 -66 68 -60 3 3 -9 19 -27 35 -32 30 -41 35 -41
25z"/>
<path d="M5532 4708 c-7 -51 -16 -136 -22 -188 -5 -52 -14 -131 -20 -175 -40
-334 -80 -701 -80 -745 0 -34 2 -37 28 -36 15 1 33 -3 40 -8 7 -5 17 -4 25 2
11 10 67 10 337 3 8 0 48 2 88 4 42 2 72 0 72 -5 0 -6 -20 -10 -45 -10 -32 0
-45 -4 -45 -14 0 -8 8 -17 18 -20 41 -12 401 -43 444 -38 l28 3 -2 167 c-1 92
-4 151 -7 132 -3 -19 -12 -35 -18 -35 -15 0 -15 3 -6 46 3 17 12 33 19 36 11
4 14 29 14 100 0 104 -7 108 -47 28 l-20 -38 -6 74 c-4 41 -2 92 3 114 5 22
10 58 10 79 0 50 20 106 37 106 7 0 13 3 13 8 1 4 3 24 6 46 4 27 2 41 -8 47
-9 6 -10 9 0 9 9 0 12 47 12 200 l0 200 -428 0 -428 0 -12 -92z m849 -71 c-10
-9 -11 -8 -5 6 3 10 9 15 12 12 3 -3 0 -11 -7 -18z m-351 -13 c0 -8 -4 -12
-10 -9 -5 3 -10 10 -10 16 0 5 5 9 10 9 6 0 10 -7 10 -16z m30 7 c0 -6 -4 -13
-10 -16 -5 -3 -10 1 -10 9 0 9 5 16 10 16 6 0 10 -4 10 -9z m-220 -196 c0 -17
-30 -19 -95 -8 l-40 7 30 7 c57 13 105 10 105 -6z m520 -55 c0 -5 -9 -10 -20
-10 -11 0 -20 5 -20 10 0 6 9 10 20 10 11 0 20 -4 20 -10z m-493 -132 c-3 -8
-6 -5 -6 6 -1 11 2 17 5 13 3 -3 4 -12 1 -19z m3 -164 c0 -21 -4 -33 -10 -29
-17 10 -11 65 7 65 2 0 3 -16 3 -36z m96 -93 c11 9 14 7 14 -10 0 -24 -8 -26
-33 -7 -12 9 -15 19 -10 32 7 17 8 17 11 -4 3 -19 6 -21 18 -11z m42 -66 c-3
-3 -9 2 -12 12 -6 14 -5 15 5 6 7 -7 10 -15 7 -18z m-413 5 c3 -5 1 -10 -4
-10 -6 0 -11 5 -11 10 0 6 2 10 4 10 3 0 8 -4 11 -10z m-48 -82 c-3 -7 -5 -2
-5 12 0 14 2 19 5 13 2 -7 2 -19 0 -25z m221 22 c24 0 25 -1 7 -20 -10 -11
-23 -20 -29 -19 -6 0 -6 3 2 6 26 10 10 23 -28 23 -23 0 -40 5 -40 11 0 8 11
9 31 5 17 -3 43 -6 57 -6z m372 -4 c0 -8 -4 -18 -10 -21 -5 -3 -10 3 -10 14 0
12 5 21 10 21 6 0 10 -6 10 -14z m160 4 c0 -5 -2 -10 -4 -10 -3 0 -8 5 -11 10
-3 6 -1 10 4 10 6 0 11 -4 11 -10z m-734 -65 c-17 -26 -31 -31 -40 -17 -3 5 6
15 19 22 14 7 25 18 25 23 0 6 3 7 6 4 4 -4 -1 -18 -10 -32z m143 26 c11 -7 9
-11 -8 -20 -17 -10 -21 -9 -21 3 0 8 -8 17 -17 19 -12 3 -10 5 7 6 14 0 31 -3
39 -8z m-96 -52 c-3 -10 -9 -19 -14 -19 -5 0 -9 -3 -9 -8 0 -4 20 -6 45 -4 25
2 45 9 45 14 0 6 9 8 19 5 10 -2 24 -1 31 3 16 10 62 -10 57 -24 -4 -13 -6
-13 -92 -15 -36 0 -65 -5 -65 -11 0 -5 12 -10 28 -10 20 -1 23 -3 12 -9 -14
-9 -76 -15 -112 -12 -24 2 -23 22 2 28 11 3 17 9 14 14 -10 16 16 78 30 73 8
-3 12 -14 9 -25z m203 -26 c-11 -11 -17 4 -9 23 7 18 8 18 11 1 2 -10 1 -21
-2 -24z m51 -25 c-3 -7 -5 -2 -5 12 0 14 2 19 5 13 2 -7 2 -19 0 -25z m500
-20 c-3 -8 -6 -5 -6 6 -1 11 2 17 5 13 3 -3 4 -12 1 -19z m-17 -38 c0 -5 -7
-7 -15 -4 -8 4 -15 8 -15 10 0 2 7 4 15 4 8 0 15 -4 15 -10z m5 -41 c4 -6 5
-12 2 -15 -7 -7 -37 7 -37 17 0 13 27 11 35 -2z"/>
<path d="M5738 3753 c6 -2 18 -2 25 0 6 3 1 5 -13 5 -14 0 -19 -2 -12 -5z"/>
<path d="M2210 4683 c-24 -17 -26 -39 -4 -47 26 -10 31 -7 27 17 -4 18 2 25
24 33 l28 11 -27 0 c-15 0 -36 -6 -48 -14z"/>
<path d="M2299 4676 c13 -16 11 -37 -4 -48 -5 -4 1 -8 15 -8 14 1 34 8 45 16
20 15 20 15 -4 35 -28 23 -70 27 -52 5z"/>
<path d="M2173 3530 c-19 -8 -43 -38 -43 -54 0 -3 7 -6 15 -6 17 0 20 -16 5
-25 -19 -12 -10 -33 20 -45 17 -7 30 -18 30 -26 0 -53 143 -18 199 49 22 26
22 29 7 46 -17 18 -119 55 -181 65 -16 3 -40 1 -52 -4z"/>
<path d="M1040 3210 c0 -5 9 -10 20 -10 11 0 20 5 20 10 0 6 -9 10 -20 10 -11
0 -20 -4 -20 -10z"/>
<path d="M888 3193 c7 -3 16 -2 19 1 4 3 -2 6 -13 5 -11 0 -14 -3 -6 -6z"/>
<path d="M958 3192 c-21 -2 -38 -8 -38 -13 0 -11 174 -5 207 8 22 8 -89 12
-169 5z"/>
<path d="M753 3171 c-39 -3 -75 -10 -80 -15 -10 -10 162 3 192 14 24 10 3 10
-112 1z"/>
<path d="M1500 3150 c-13 -8 -12 -10 3 -10 9 0 17 5 17 10 0 12 -1 12 -20 0z"/>
<path d="M1288 3143 c7 -3 16 -2 19 1 4 3 -2 6 -13 5 -11 0 -14 -3 -6 -6z"/>
<path d="M858 3123 c7 -3 16 -2 19 1 4 3 -2 6 -13 5 -11 0 -14 -3 -6 -6z"/>
<path d="M1193 3123 c9 -2 23 -2 30 0 6 3 -1 5 -18 5 -16 0 -22 -2 -12 -5z"/>
<path d="M675 3110 c-27 -5 -81 -9 -120 -10 -78 -2 -130 -13 -105 -21 8 -3 56
-2 105 1 50 4 125 5 168 2 54 -3 77 -1 77 7 0 6 -18 12 -42 12 -40 1 -41 2
-13 9 27 7 27 8 5 7 -14 0 -47 -3 -75 -7z"/>
<path d="M1073 3113 c9 -2 25 -2 35 0 9 3 1 5 -18 5 -19 0 -27 -2 -17 -5z"/>
<path d="M968 3103 c7 -3 16 -2 19 1 4 3 -2 6 -13 5 -11 0 -14 -3 -6 -6z"/>
<path d="M1018 3103 c7 -3 16 -2 19 1 4 3 -2 6 -13 5 -11 0 -14 -3 -6 -6z"/>
<path d="M978 3073 c12 -2 32 -2 45 0 12 2 2 4 -23 4 -25 0 -35 -2 -22 -4z"/>
<path d="M717 3053 c18 -2 50 -2 70 0 21 2 7 4 -32 4 -38 0 -55 -2 -38 -4z"/>
<path d="M618 3043 c12 -2 32 -2 45 0 12 2 2 4 -23 4 -25 0 -35 -2 -22 -4z"/>
<path d="M518 3033 c7 -3 16 -2 19 1 4 3 -2 6 -13 5 -11 0 -14 -3 -6 -6z"/>
<path d="M2359 2978 c18 -5 37 -6 42 -1 4 4 -11 9 -34 10 l-42 1 34 -10z"/>
<path d="M1605 2959 c-44 -5 -89 -13 -100 -18 -11 -5 -28 -12 -37 -15 -18 -5
-24 -34 -33 -183 -3 -50 -14 -117 -25 -149 -11 -31 -20 -59 -20 -61 0 -1 46
-3 103 -3 87 0 166 -8 227 -22 20 -4 47 151 55 311 3 69 7 127 10 129 23 23
-31 27 -180 11z"/>
<path d="M925 2920 c-27 -5 -73 -9 -102 -9 -58 -1 -86 -9 -77 -22 3 -5 1 -9
-5 -9 -5 0 -12 6 -14 13 -3 7 -6 5 -6 -5 -1 -11 -9 -18 -21 -18 -11 0 -20 -4
-20 -8 0 -18 80 -29 185 -26 61 2 145 -1 188 -7 58 -9 81 -9 90 0 8 8 8 11 -1
11 -7 0 -12 5 -12 10 0 6 9 10 21 10 11 0 18 -4 15 -9 -11 -17 48 -20 67 -4
21 20 14 31 -8 13 -9 -7 -18 -10 -22 -6 -10 10 1 16 48 25 24 5 36 9 25 10
-11 1 -16 6 -13 15 4 9 -3 16 -16 20 -31 8 -262 5 -322 -4z"/>
<path d="M5428 2923 c7 -3 16 -2 19 1 4 3 -2 6 -13 5 -11 0 -14 -3 -6 -6z"/>
<path d="M5960 2880 c-13 -8 -12 -10 3 -10 9 0 17 5 17 10 0 12 -1 12 -20 0z"/>
<path d="M450 2865 c-14 -8 -20 -14 -14 -15 5 0 19 7 30 15 24 18 16 19 -16 0z"/>
<path d="M1115 2811 l-50 -7 55 -5 c37 -3 59 0 68 8 15 15 14 15 -73 4z"/>
<path d="M2723 2793 c15 -2 37 -2 50 0 12 2 0 4 -28 4 -27 0 -38 -2 -22 -4z"/>
<path d="M5908 2793 c6 -2 18 -2 25 0 6 3 1 5 -13 5 -14 0 -19 -2 -12 -5z"/>
<path d="M2648 2783 c6 -2 18 -2 25 0 6 3 1 5 -13 5 -14 0 -19 -2 -12 -5z"/>
<path d="M2720 2770 c0 -12 24 -12 60 0 21 7 19 8 -17 9 -24 1 -43 -3 -43 -9z"/>
<path d="M2623 2758 c-6 -12 60 -9 77 2 11 7 3 9 -28 8 -24 -2 -46 -6 -49 -10z"/>
<path d="M1095 2720 c-3 -6 1 -7 9 -4 18 7 21 14 7 14 -6 0 -13 -4 -16 -10z"/>
<path d="M3058 2703 c7 -3 16 -2 19 1 4 3 -2 6 -13 5 -11 0 -14 -3 -6 -6z"/>
<path d="M1025 2689 c-27 -4 -72 -11 -98 -14 -72 -9 -50 -17 44 -16 59 1 87 5
98 16 20 20 14 22 -44 14z"/>
<path d="M1595 2410 c-3 -11 -12 -20 -18 -20 -7 0 -20 -7 -30 -14 -16 -12 -16
-17 -5 -35 12 -20 65 -51 87 -51 11 0 52 74 65 118 7 21 5 22 -43 22 -41 0
-51 -4 -56 -20z"/>
<path d="M690 2410 c-12 -8 -11 -10 8 -10 12 0 22 5 22 10 0 13 -11 13 -30 0z"/>
<path d="M1395 2340 c54 -25 75 -25 75 0 0 18 -6 20 -57 19 l-58 0 40 -19z"/>
<path d="M1490 2346 c0 -7 8 -20 17 -27 15 -12 16 -12 10 4 -4 10 -7 23 -7 28
0 5 -4 9 -10 9 -5 0 -10 -6 -10 -14z"/>
<path d="M1261 2226 c-15 -18 -4 -26 42 -26 31 0 40 -4 44 -20 5 -20 106 -76
148 -81 11 -2 42 10 70 26 53 31 113 38 154 16 11 -6 44 -10 73 -9 36 1 42 3
21 5 -18 2 -33 8 -33 14 0 5 -7 9 -15 9 -9 0 -32 11 -53 24 -45 29 -126 40
-143 19 -9 -10 -14 -11 -19 -3 -4 7 -45 13 -96 16 -99 4 -160 10 -173 18 -5 3
-14 0 -20 -8z"/>
<path d="M6350 2070 c0 -12 8 -12 35 0 18 8 17 9 -7 9 -16 1 -28 -3 -28 -9z"/>
<path d="M1207 2038 c-48 -45 -73 -52 -129 -33 -56 18 -64 16 -73 -25 -4 -17
-16 -35 -27 -41 -12 -7 -17 -14 -11 -20 11 -11 4 -71 -7 -64 -4 2 -22 -9 -40
-25 -19 -17 -40 -30 -47 -30 -7 0 -18 -9 -25 -20 -7 -11 -18 -20 -25 -20 -6 0
-15 -9 -18 -20 -4 -11 -10 -18 -15 -15 -4 3 -13 -2 -20 -10 -7 -8 -17 -15 -22
-15 -5 0 -19 -10 -30 -22 -13 -16 -21 -19 -24 -10 -8 17 -24 15 -24 -3 0 -21
-18 -19 -23 3 -3 11 -5 8 -6 -9 -1 -23 -7 -27 -39 -32 -21 -4 -44 -15 -52 -27
-8 -11 -21 -18 -30 -15 -18 5 -80 -73 -80 -102 0 -16 -51 -97 -71 -113 -13
-10 5 -90 21 -90 4 0 11 -12 15 -27 11 -46 33 -73 60 -73 43 0 158 43 238 90
44 25 92 52 108 60 17 9 27 19 23 23 -4 4 -2 7 4 7 6 0 13 8 17 19 3 10 16 30
28 43 12 13 35 43 50 67 43 65 54 40 22 -50 -67 -191 -135 -456 -135 -523 l0
-35 -57 -6 c-58 -6 -216 -28 -438 -61 -105 -16 -115 -19 -80 -25 22 -4 42 -4
45 0 3 4 60 13 128 20 68 7 153 19 190 27 37 8 100 17 140 20 67 6 72 6 72
-13 0 -10 7 -28 15 -39 15 -19 15 -19 30 0 8 11 15 32 15 47 0 25 4 28 53 34
38 6 47 10 32 15 -11 4 -30 4 -42 -1 -29 -11 -31 13 -4 40 11 11 16 21 11 23
-4 2 4 39 18 83 24 71 27 76 32 50 6 -34 32 -41 36 -10 2 11 10 58 18 105 9
47 21 117 27 157 6 42 25 102 45 143 19 40 34 80 34 89 0 10 9 30 20 44 16 21
18 30 10 52 -12 32 -5 48 18 41 17 -6 42 31 42 60 0 7 11 21 25 32 14 11 25
29 25 40 0 27 56 86 97 101 38 16 70 48 57 60 -8 7 -86 32 -162 51 -30 7 -38
5 -65 -22z m-197 -440 c-2 -30 -25 -67 -38 -59 -10 6 -9 14 5 39 19 33 33 42
33 20z"/>
<path d="M6331 1953 c-23 -19 -46 -28 -78 -30 -25 -1 -50 -6 -56 -11 -7 -5
-28 -12 -47 -16 -54 -9 -67 -13 -178 -44 -101 -29 -149 -51 -84 -39 20 4 32 2
32 -4 0 -7 12 -8 33 -4 56 11 70 17 59 24 -5 3 10 6 34 7 33 1 44 -3 44 -14 0
-9 -3 -13 -6 -10 -3 3 -31 -4 -62 -17 -79 -32 -167 -49 -189 -36 -16 8 -14 10
11 17 l29 7 -23 12 c-17 9 -32 10 -54 3 -17 -5 -65 -18 -106 -28 -49 -12 -65
-19 -45 -19 26 -1 28 -3 11 -12 -13 -8 -25 -8 -42 0 -13 5 -25 7 -28 3 -2 -4
8 -13 24 -20 25 -11 39 -10 98 7 89 27 118 27 125 1 4 -17 1 -19 -19 -14 -13
4 -38 0 -55 -7 -29 -12 -30 -13 -13 -26 10 -7 12 -13 5 -13 -7 0 -10 -4 -7 -9
8 -13 48 -1 63 18 7 9 13 12 13 6 0 -5 7 -18 14 -27 12 -17 16 -17 68 1 68 24
87 16 68 -28 -13 -33 -30 -41 -30 -16 0 17 -25 20 -35 5 -3 -5 -19 -10 -36
-10 -19 0 -29 -5 -29 -15 0 -8 9 -15 19 -15 10 0 21 -7 25 -15 7 -18 37 -20
54 -3 9 9 15 9 23 1 8 -8 5 -13 -10 -18 -29 -9 -26 -22 10 -41 27 -13 38 -14
75 -4 24 7 44 17 44 21 0 5 11 9 24 9 14 0 33 10 43 23 10 13 43 41 73 62 30
22 57 42 60 46 3 3 22 9 43 13 34 6 53 26 25 26 -7 0 -21 12 -31 25 -17 24
-17 25 18 62 19 20 35 43 35 50 0 8 7 16 15 19 11 5 15 22 15 65 0 50 -3 59
-18 59 -10 0 -33 -12 -51 -27z m39 -73 c-14 -11 -29 -20 -33 -20 -5 0 -6 -8
-3 -18 4 -10 -1 -27 -9 -38 -12 -17 -14 -17 -15 -2 0 9 5 20 11 23 6 5 4 12
-8 22 -11 9 -14 16 -7 19 6 3 20 11 30 19 10 8 28 14 39 14 18 1 18 -1 -5 -19z
m-230 -45 c0 -8 -4 -15 -10 -15 -5 0 -10 7 -10 15 0 8 5 15 10 15 6 0 10 -7
10 -15z m90 -49 c0 -16 -14 -35 -22 -30 -5 3 -12 -3 -14 -13 -6 -20 -54 -43
-92 -43 -12 0 -22 -4 -22 -9 0 -4 -11 -6 -26 -3 -23 4 -24 2 -19 -21 8 -30 -2
-67 -17 -67 -6 0 -8 12 -5 30 5 23 2 32 -15 41 -19 10 -18 12 22 35 23 13 54
27 68 31 14 3 37 12 50 19 14 7 30 10 37 8 6 -3 18 2 25 11 11 14 30 21 30 11z
m50 -56 c0 -5 -9 -10 -21 -10 -11 0 -17 5 -14 10 3 6 13 10 21 10 8 0 14 -4
14 -10z m-115 -59 c8 12 25 12 25 -1 0 -33 -80 -30 -93 4 -6 14 -3 15 28 2 21
-9 37 -11 40 -5z m-75 -21 c0 -5 -5 -10 -11 -10 -5 0 -7 5 -4 10 3 6 8 10 11
10 2 0 4 -4 4 -10z m15 -50 c3 -6 -1 -13 -9 -16 -9 -3 -14 -9 -12 -13 3 -4
-11 -5 -30 -3 -37 5 -37 8 -2 28 29 15 45 17 53 4z"/>
<path d="M6346 1773 c-9 -9 -7 -33 3 -33 12 0 22 28 12 34 -5 3 -11 3 -15 -1z"/>
<path d="M5390 1702 c0 -8 131 -82 146 -82 9 0 -22 21 -95 67 -39 24 -51 27
-51 15z"/>
<path d="M4943 1673 c9 -2 25 -2 35 0 9 3 1 5 -18 5 -19 0 -27 -2 -17 -5z"/>
<path d="M5760 1630 c0 -5 9 -10 19 -10 11 0 23 5 26 10 4 6 -5 10 -19 10 -14
0 -26 -4 -26 -10z"/>
<path d="M5570 1623 c0 -5 23 -9 50 -10 28 -1 50 2 50 7 0 6 -22 10 -50 10
-27 0 -50 -3 -50 -7z"/>
<path d="M6290 1619 c0 -5 5 -7 10 -4 6 3 10 8 10 11 0 2 -4 4 -10 4 -5 0 -10
-5 -10 -11z"/>
<path d="M6166 1543 c-16 -16 -4 -33 25 -33 17 0 28 4 24 10 -9 15 -41 30 -49
23z"/>
<path d="M5682 1499 c2 -7 10 -15 17 -17 8 -3 12 1 9 9 -2 7 -10 15 -17 17 -8
3 -12 -1 -9 -9z"/>
<path d="M5840 1458 c0 -5 7 -8 15 -8 9 0 29 -7 46 -15 35 -18 109 -11 89 9
-12 12 -150 25 -150 14z"/>
<path d="M138 1443 c7 -3 16 -2 19 1 4 3 -2 6 -13 5 -11 0 -14 -3 -6 -6z"/>
<path d="M38 1433 c12 -2 30 -2 40 0 9 3 -1 5 -23 4 -22 0 -30 -2 -17 -4z"/>
<path d="M208 1433 c-37 -10 -16 -24 30 -21 26 2 47 8 47 13 0 11 -49 16 -77
8z"/>
<path d="M5900 1390 c0 -5 5 -10 10 -10 6 0 10 5 10 10 0 6 -4 10 -10 10 -5 0
-10 -4 -10 -10z"/>
<path d="M6310 1363 c0 -2 16 -11 35 -19 22 -9 32 -19 29 -28 -3 -7 2 -16 10
-19 12 -5 16 0 16 18 0 13 -5 27 -11 31 -15 9 -79 23 -79 17z"/>
<path d="M6175 1350 c3 -5 8 -10 11 -10 2 0 4 5 4 10 0 6 -5 10 -11 10 -5 0
-7 -4 -4 -10z"/>
<path d="M5916 1317 c3 -10 9 -15 12 -12 3 3 0 11 -7 18 -10 9 -11 8 -5 -6z"/>
<path d="M2425 1244 c-33 -18 -53 -34 -45 -35 79 -7 100 -4 100 11 0 9 3 20 7
24 9 9 13 36 5 35 -4 -1 -34 -16 -67 -35z"/>
<path d="M2720 1272 c0 -2 9 -19 20 -37 15 -25 21 -53 23 -118 2 -75 -1 -88
-19 -109 -14 -14 -25 -43 -29 -75 -4 -29 -11 -53 -15 -53 -5 0 -11 -18 -15
-40 -4 -22 -11 -40 -16 -40 -5 0 -9 -11 -9 -25 0 -14 -5 -25 -11 -25 -5 0 -7
-5 -4 -10 4 -6 -6 -36 -20 -68 -15 -31 -38 -82 -52 -112 -14 -30 -29 -62 -34
-70 -5 -8 -17 -32 -26 -52 -9 -21 -20 -38 -25 -38 -4 0 -8 -16 -8 -34 0 -23
-8 -44 -25 -62 -14 -15 -25 -32 -25 -38 0 -6 -16 -28 -35 -49 -19 -21 -35 -48
-35 -61 0 -12 -11 -33 -24 -45 -13 -13 -27 -35 -31 -49 -3 -15 -8 -35 -11 -44
-5 -17 9 -18 200 -18 189 0 228 5 196 25 -5 3 -10 15 -10 25 0 19 1 19 35 2
19 -9 37 -25 41 -34 5 -17 54 -18 835 -18 737 0 866 3 821 22 -14 5 -97 145
-160 268 -83 161 -96 185 -104 188 -4 2 -5 9 -2 16 3 7 -6 24 -20 37 -14 13
-26 31 -26 40 0 9 -7 22 -15 29 -21 17 -20 1 6 -113 35 -154 18 -216 -59 -217
-43 0 -78 35 -87 88 -4 23 -11 42 -16 42 -5 0 -9 9 -9 20 0 12 -7 32 -16 45
-21 32 -24 113 -4 128 8 7 17 21 18 32 6 30 9 30 30 -4 l20 -32 6 25 c3 14 4
36 1 48 -3 13 -7 65 -8 116 -1 51 -7 96 -12 100 -6 4 -11 27 -11 53 -1 47 3
51 74 80 l23 9 -7 -104 c-7 -108 -1 -154 16 -126 7 12 12 12 21 3 9 -9 17 -9
32 -1 12 6 48 8 91 4 l71 -6 -70 25 c-47 17 -59 23 -35 21 105 -14 270 -18
270 -7 0 6 -7 11 -15 11 -8 0 -15 5 -15 11 0 7 -8 18 -17 25 -12 9 -14 16 -8
21 6 5 11 23 10 41 0 25 -8 41 -33 63 -18 16 -30 34 -27 39 3 5 -4 14 -15 20
-11 6 -20 17 -20 24 0 17 -76 46 -122 46 -21 0 -47 4 -60 9 -89 35 -192 53
-299 54 -27 0 -36 5 -35 16 1 12 -10 17 -39 18 -22 1 -69 5 -105 8 -36 3 -119
6 -185 8 -113 2 -120 1 -123 -18 -3 -22 35 -45 76 -45 25 0 107 -19 204 -47
40 -11 61 -13 70 -6 16 13 62 -2 53 -17 -3 -5 -21 -10 -40 -10 -19 0 -45 -4
-59 -10 -18 -7 -26 -6 -26 2 0 7 -14 9 -41 5 -31 -4 -39 -2 -35 8 3 9 -10 15
-42 21 -26 5 -55 7 -64 6 -10 -1 -18 2 -18 8 0 5 -10 8 -22 8 -63 -4 -98 3
-98 17 0 11 -12 15 -44 15 -25 0 -48 5 -51 10 -3 6 -19 10 -34 10 -15 0 -48
11 -72 23 -24 13 -61 29 -82 36 -36 12 -277 23 -277 13z m225 -139 c40 -19 40
-19 24 -144 -16 -123 2 -314 33 -341 19 -16 17 -23 -4 -19 -12 2 -10 -47 2
-54 6 -3 10 2 10 12 1 12 6 8 18 -14 9 -18 21 -32 27 -32 5 0 11 -5 13 -11 3
-9 -1 -9 -16 -1 -11 6 -34 8 -51 5 -29 -6 -30 -5 -34 37 -2 24 -4 -4 -3 -63 0
-59 -3 -110 -7 -114 -4 -4 -7 68 -7 161 0 106 -4 181 -12 202 -12 33 -33 44
-41 21 -2 -7 -8 -10 -12 -6 -4 4 -2 15 5 23 10 12 13 57 11 186 -1 93 0 169 3
169 3 0 21 -8 41 -17z m124 -49 c16 -20 21 -41 21 -86 0 -63 -14 -71 -24 -13
-6 32 -11 37 -32 34 -23 -3 -33 76 -11 84 21 9 25 8 46 -19z m701 6 c-13 -8
-12 -10 5 -11 11 -1 4 -5 -15 -8 -19 -4 -38 -6 -42 -4 -14 7 15 29 41 31 20 1
23 0 11 -8z m100 0 c0 -5 -7 -10 -15 -10 -8 0 -15 5 -15 10 0 6 7 10 15 10 8
0 15 -4 15 -10z m-282 -27 c-10 -2 -26 -2 -35 0 -10 3 -2 5 17 5 19 0 27 -2
18 -5z m-549 -111 c-1 -26 1 -76 4 -112 6 -60 6 -61 -2 -12 -5 29 -16 64 -26
78 -11 18 -14 29 -7 36 6 6 8 17 5 26 -4 9 -2 13 4 9 7 -5 9 1 5 15 -3 15 -2
19 7 14 7 -5 11 -27 10 -54z m52 -155 c-10 -9 -11 -8 -5 6 3 10 9 15 12 12 3
-3 0 -11 -7 -18z m-94 -49 c-3 -7 -5 -2 -5 12 0 14 2 19 5 13 2 -7 2 -19 0
-25z m-97 -43 c0 -28 -25 -10 -28 20 -3 26 -2 27 12 12 9 -8 16 -23 16 -32z
m188 -119 c-4 -31 -22 -21 -24 14 -1 25 1 29 13 19 8 -7 13 -22 11 -33z m-378
-416 c12 -8 12 -12 2 -18 -9 -6 0 -20 31 -53 48 -49 80 -98 54 -82 -25 14 -91
79 -104 101 -14 24 -17 62 -5 62 4 0 14 -5 22 -10z m-60 -10 c13 -9 13 -11 0
-19 -12 -8 -11 -13 5 -31 16 -18 17 -23 5 -30 -12 -7 -20 1 -36 33 -16 30 -19
44 -10 49 14 10 18 10 36 -2z m200 -20 c0 -5 -4 -10 -10 -10 -5 0 -10 5 -10
10 0 6 5 10 10 10 6 0 10 -4 10 -10z m0 -106 c0 -8 -4 -12 -10 -9 -5 3 -10 10
-10 16 0 5 5 9 10 9 6 0 10 -7 10 -16z"/>
<path d="M5138 1273 c7 -3 16 -2 19 1 4 3 -2 6 -13 5 -11 0 -14 -3 -6 -6z"/>
<path d="M6145 1220 c3 -5 12 -7 20 -3 21 7 19 13 -6 13 -11 0 -18 -4 -14 -10z"/>
<path d="M2416 1143 c-36 -41 -37 -45 -15 -38 29 9 69 50 69 71 0 23 -13 16
-54 -33z"/>
<path d="M713 1113 c9 -2 25 -2 35 0 9 3 1 5 -18 5 -19 0 -27 -2 -17 -5z"/>
<path d="M653 1103 c9 -2 23 -2 30 0 6 3 -1 5 -18 5 -16 0 -22 -2 -12 -5z"/>
<path d="M465 1080 c-25 -11 1 -11 35 0 20 6 21 8 5 8 -11 0 -29 -3 -40 -8z"/>
<path d="M2427 1060 c-15 -16 -33 -44 -41 -62 -8 -18 -24 -48 -36 -65 -41 -61
15 -26 75 48 23 28 47 97 35 104 -4 2 -19 -9 -33 -25z"/>
<path d="M113 1033 c9 -2 25 -2 35 0 9 3 1 5 -18 5 -19 0 -27 -2 -17 -5z"/>
<path d="M58 1023 c6 -2 18 -2 25 0 6 3 1 5 -13 5 -14 0 -19 -2 -12 -5z"/>
<path d="M5083 993 c9 -2 23 -2 30 0 6 3 -1 5 -18 5 -16 0 -22 -2 -12 -5z"/>
<path d="M5018 983 c7 -3 16 -2 19 1 4 3 -2 6 -13 5 -11 0 -14 -3 -6 -6z"/>
<path d="M4835 961 c-22 -3 -35 -9 -30 -13 6 -3 37 0 70 7 61 13 34 17 -40 6z"/>
<path d="M4468 774 c9 -13 23 -24 31 -24 11 0 11 3 1 15 -6 8 -9 18 -6 23 3 5
-5 10 -19 10 -23 0 -24 -1 -7 -24z"/>
<path d="M4790 784 c0 -10 5 -26 10 -34 8 -11 9 -7 4 15 -8 37 -14 45 -14 19z"/>
<path d="M6325 745 c-38 -14 -79 -29 -90 -34 -11 -5 -33 -12 -50 -15 -88 -14
-166 -34 -179 -45 -9 -7 -23 -10 -32 -7 -9 3 -35 1 -57 -5 -23 -6 -61 -14 -86
-19 -88 -15 -317 -61 -378 -75 -34 -8 -74 -15 -89 -15 -23 0 -123 -22 -163
-36 -10 -3 -3 -15 22 -39 19 -19 38 -44 42 -55 3 -11 10 -20 15 -20 5 0 35
-23 66 -50 39 -34 63 -48 73 -44 24 10 62 6 87 -11 30 -20 68 -19 89 1 11 12
27 15 58 11 59 -7 71 -10 98 -29 20 -15 22 -19 9 -27 -8 -6 -27 -11 -42 -11
-15 0 -30 -4 -33 -10 -3 -5 -17 -10 -30 -10 -13 0 -29 -8 -34 -18 -9 -15 -10
-15 -11 6 0 23 -14 30 -25 12 -3 -5 -1 -10 4 -10 6 0 11 -5 11 -11 0 -6 -8 -9
-17 -7 -10 2 -18 10 -18 18 0 8 -11 20 -25 26 -22 10 -26 8 -32 -14 -9 -31 7
-56 48 -75 29 -14 33 -14 38 -1 4 10 16 14 33 12 37 -4 40 -24 3 -31 -16 -4
-30 -11 -30 -16 0 -14 58 -43 70 -36 5 3 11 1 15 -5 3 -5 16 -8 28 -4 13 3 35
-2 51 -10 22 -11 33 -12 47 -3 10 6 22 7 26 3 4 -5 2 -11 -5 -13 -6 -3 -10 -9
-6 -14 7 -12 84 -12 84 1 0 13 -32 28 -47 23 -7 -3 -13 2 -13 11 0 9 -5 16
-11 16 -6 0 -8 8 -5 18 5 14 1 18 -15 18 -12 -1 -24 5 -26 11 -3 9 4 11 25 7
26 -5 31 -3 34 17 2 16 11 25 25 27 19 3 22 -2 25 -35 2 -29 7 -37 19 -35 9 1
20 -5 23 -14 4 -10 12 -14 22 -10 11 4 14 1 9 -13 -8 -25 4 -51 24 -51 13 0
13 2 2 9 -17 11 -6 32 13 25 13 -5 33 29 28 48 -1 3 12 -1 28 -9 29 -14 42
-45 18 -42 -20 2 -58 -12 -54 -20 3 -4 41 -8 85 -10 81 -2 81 -2 81 23 0 15 8
30 21 36 25 14 14 31 -36 55 -49 23 -47 46 3 33 83 -21 83 -21 77 -6 -7 16
-47 38 -70 38 -8 0 -15 9 -15 20 0 15 7 20 24 20 14 0 28 5 31 11 4 6 14 8 22
5 22 -9 63 4 63 19 0 8 -12 15 -27 17 -33 4 -41 24 -13 31 15 4 19 12 18 32
-2 15 -8 30 -15 32 -7 3 -13 14 -13 24 0 21 9 22 83 10 l47 -8 0 42 c0 42 -15
65 -51 78 -26 9 -34 59 -12 75 17 13 17 14 0 23 -13 8 -16 17 -11 32 8 27 22
37 52 37 19 0 22 5 22 45 0 25 -1 45 -2 45 -2 -1 -34 -12 -73 -25z m-425 -455
l25 -8 -27 -1 c-21 -1 -28 -6 -28 -21 0 -27 -26 -26 -33 2 -10 38 7 46 63 28z
m115 -79 c3 -5 1 -12 -5 -16 -5 -3 -10 1 -10 9 0 18 6 21 15 7z m75 -15 c0 -3
-4 -8 -10 -11 -5 -3 -10 -1 -10 4 0 6 5 11 10 11 6 0 10 -2 10 -4z m-32 -39
c2 -10 -3 -17 -12 -17 -10 0 -16 9 -16 21 0 24 23 21 28 -4z m-293 -60 c13
-10 15 -16 6 -21 -12 -8 -41 10 -41 25 0 13 13 11 35 -4z m-50 -7 c3 -5 -1
-10 -9 -10 -9 0 -16 5 -16 10 0 6 4 10 9 10 6 0 13 -4 16 -10z m453 -21 c-5
-14 -21 -14 -26 0 -2 6 4 11 13 11 9 0 15 -5 13 -11z m7 -39 c3 -5 1 -10 -4
-10 -6 0 -11 5 -11 10 0 6 2 10 4 10 3 0 8 -4 11 -10z"/>
<path d="M348 753 c6 -2 18 -2 25 0 6 3 1 5 -13 5 -14 0 -19 -2 -12 -5z"/>
<path d="M5585 740 c-16 -7 -17 -9 -3 -9 9 -1 20 4 23 9 7 11 7 11 -20 0z"/>
<path d="M5460 723 c-151 -24 -427 -78 -434 -85 -20 -17 83 -1 359 57 144 30
188 46 75 28z"/>
<path d="M4720 701 c0 -11 5 -32 11 -48 6 -15 11 -71 11 -123 0 -92 0 -95 22
-96 28 -2 51 34 60 91 5 34 4 37 -6 18 -10 -22 -12 -21 -33 20 -23 43 -39 97
-40 131 0 11 -6 21 -12 23 -8 3 -13 -4 -13 -16z"/>
<path d="M630 689 c0 -5 5 -7 10 -4 6 3 10 8 10 11 0 2 -4 4 -10 4 -5 0 -10
-5 -10 -11z"/>
<path d="M900 685 c-12 -14 -12 -18 1 -25 10 -7 15 -5 17 5 6 28 -3 38 -18 20z"/>
<path d="M570 670 c0 -5 4 -10 9 -10 6 0 13 5 16 10 3 6 -1 10 -9 10 -9 0 -16
-4 -16 -10z"/>
<path d="M820 665 c0 -8 7 -15 15 -15 8 0 15 7 15 15 0 8 -7 15 -15 15 -8 0
-15 -7 -15 -15z"/>
<path d="M770 660 c0 -5 5 -10 10 -10 6 0 10 5 10 10 0 6 -4 10 -10 10 -5 0
-10 -4 -10 -10z"/>
<path d="M1220 650 c0 -14 47 -43 58 -36 10 6 38 -21 31 -29 -3 -2 -31 9 -64
25 -71 35 -89 36 -117 10 -13 -12 -25 -16 -32 -11 -24 20 -61 -1 -93 -51 -27
-41 -33 -60 -33 -104 0 -30 -4 -54 -10 -54 -5 0 -10 17 -10 39 0 43 -17 65
-40 51 -13 -8 -13 -10 0 -10 12 0 15 -8 12 -36 -3 -27 -10 -38 -30 -45 -19 -8
-23 -12 -13 -18 19 -12 -4 -24 -30 -16 -15 5 -19 4 -15 -4 4 -6 -1 -14 -11
-17 -10 -3 -26 -10 -35 -15 -10 -5 -28 -9 -40 -10 -16 -1 -11 -4 15 -11 20 -6
37 -16 37 -24 0 -8 5 -14 12 -14 9 0 8 -4 -2 -14 -9 -8 -73 -24 -150 -36 -122
-19 -199 -32 -255 -45 -77 -17 -258 -45 -298 -46 -49 -2 -70 -15 -47 -29 7 -5
10 -18 7 -31 -3 -13 -1 -33 3 -44 5 -11 9 -14 9 -6 1 10 4 11 14 2 23 -19 27
0 7 29 -26 36 -26 36 11 49 42 15 49 14 43 -4 -4 -8 -12 -15 -20 -15 -8 0 -14
-7 -14 -15 0 -23 49 -19 90 7 l35 22 -35 6 -35 6 40 11 c58 17 220 45 242 42
10 -1 25 1 33 4 14 5 130 27 223 42 35 6 37 4 37 -21 0 -19 -4 -25 -15 -20
-14 5 -18 -10 -17 -64 0 -3 3 -16 7 -30 4 -14 4 -22 0 -18 -11 11 -45 -10 -45
-27 0 -8 3 -15 8 -16 4 0 37 -2 73 -5 l66 -4 6 51 c4 29 13 59 20 68 25 28 47
79 47 109 0 30 24 60 34 44 3 -5 3 -22 1 -38 -4 -28 -4 -28 11 5 11 24 12 37
5 44 -16 16 -13 27 7 27 20 0 42 -18 42 -35 0 -19 -54 -95 -67 -95 -8 0 -13
-12 -13 -28 0 -16 -7 -43 -15 -59 -16 -32 -11 -63 9 -63 16 1 46 25 46 38 0
19 20 24 35 8 20 -20 20 -60 0 -52 -8 3 -31 -1 -52 -9 l-38 -14 78 0 c56 -1
77 2 77 12 0 7 9 20 20 30 11 9 20 23 20 31 0 8 3 22 6 31 5 13 1 15 -27 12
-19 -2 -42 -8 -52 -12 -10 -4 -21 -4 -25 0 -9 9 49 55 71 55 9 0 17 5 17 10 0
14 46 60 60 60 15 0 12 -21 -6 -34 -9 -7 -12 -18 -8 -29 8 -21 34 -23 34 -2 0
8 5 15 10 15 6 0 10 -5 10 -11 0 -5 5 -7 11 -3 6 3 14 2 18 -4 4 -6 22 -13 41
-14 31 -3 35 -1 32 20 -3 17 2 22 17 22 12 0 21 -7 21 -15 0 -8 5 -15 10 -15
10 0 13 21 11 70 -1 23 0 23 8 5 7 -13 10 -15 10 -5 0 8 -3 21 -8 28 -6 10
-10 10 -21 -3 -7 -9 -19 -14 -27 -11 -9 4 -13 -3 -13 -21 0 -26 -1 -26 -14 -7
-14 18 -15 18 -25 -9 -12 -30 -37 -32 -35 -3 1 11 -8 19 -27 23 -25 5 -27 7
-14 17 10 7 14 18 9 30 -5 13 -9 14 -15 5 -10 -17 -69 -21 -69 -4 0 7 16 20
35 29 19 9 35 24 35 33 0 13 3 13 15 3 13 -11 15 -8 15 13 0 14 5 29 10 32 6
3 10 19 10 35 0 16 7 30 16 34 27 10 36 7 29 -14 -7 -21 1 -25 24 -11 18 12 7
41 -16 41 -12 0 -14 3 -7 8 7 4 14 18 15 32 3 16 10 24 19 23 9 -2 26 16 41
45 l26 48 -26 11 c-53 23 -73 25 -83 12 -7 -11 -11 -11 -15 -1 -6 14 -33 16
-33 2z m-307 -323 c7 -18 -19 -52 -28 -36 -4 6 -2 15 5 19 7 4 9 13 6 19 -4 6
-3 11 2 11 6 0 12 -6 15 -13z m167 -21 c0 -3 -4 -8 -10 -11 -5 -3 -10 -1 -10
4 0 6 5 11 10 11 6 0 10 -2 10 -4z m0 -53 c0 -10 -6 -13 -16 -9 -9 3 -20 6
-25 6 -16 0 -9 18 9 23 23 5 32 -1 32 -20z m-314 -175 c-12 -7 -21 -7 -28 0
-6 6 0 10 18 10 23 0 24 -2 10 -10z"/>
<path d="M1035 643 c-11 -3 -26 -10 -34 -16 -7 -7 -19 -12 -25 -13 -6 0 -17
-2 -24 -2 -19 -3 -11 -67 8 -67 8 0 16 10 18 23 2 12 10 22 17 22 8 0 16 8 19
18 4 10 18 23 34 29 28 11 22 14 -13 6z"/>
<path d="M1090 640 c0 -5 5 -10 10 -10 6 0 10 5 10 10 0 6 -4 10 -10 10 -5 0
-10 -4 -10 -10z"/>
<path d="M230 583 c-15 -64 -27 -94 -38 -91 -8 2 -147 -21 -174 -28 -35 -10
-17 -22 20 -14 94 21 168 34 179 32 8 -2 13 7 12 20 0 13 5 47 11 77 15 72 7
76 -10 4z"/>
<path d="M5598 633 c6 -2 18 -2 25 0 6 3 1 5 -13 5 -14 0 -19 -2 -12 -5z"/>
<path d="M765 618 c-22 -5 -54 -11 -72 -11 -44 -3 -54 -17 -12 -17 47 0 159
19 178 30 21 13 -40 11 -94 -2z"/>
<path d="M5102 611 c-10 -6 -10 -10 3 -21 13 -11 15 -9 15 9 0 24 0 24 -18 12z"/>
<path d="M865 590 c-19 -8 -19 -9 3 -9 12 -1 22 4 22 9 0 6 -1 10 -2 9 -2 0
-12 -4 -23 -9z"/>
<path d="M680 569 c-25 -4 -81 -12 -125 -18 -90 -11 -188 -31 -183 -37 5 -5
420 55 427 61 7 7 -67 4 -119 -6z"/>
<path d="M1390 551 c0 -5 5 -13 10 -16 6 -3 10 -2 10 4 0 5 -4 13 -10 16 -5 3
-10 2 -10 -4z"/>
<path d="M860 520 c0 -5 5 -10 10 -10 6 0 10 5 10 10 0 6 -4 10 -10 10 -5 0
-10 -4 -10 -10z"/>
<path d="M5080 460 c13 -18 30 -30 43 -30 20 0 19 3 -12 30 -43 38 -58 38 -31
0z"/>
<path d="M4192 453 c7 -16 17 -35 24 -43 10 -13 31 -49 78 -135 6 -11 14 -22
17 -25 3 -3 23 -32 44 -65 21 -33 51 -79 66 -102 16 -23 29 -44 29 -48 0 -3 7
-13 15 -21 32 -33 2 42 -37 91 -22 27 -59 83 -70 105 -13 25 -23 39 -45 65 -7
7 -13 19 -13 25 0 6 -8 23 -19 38 -10 15 -35 53 -55 85 -40 62 -52 73 -34 30z"/>
<path d="M168 433 c7 -3 16 -2 19 1 4 3 -2 6 -13 5 -11 0 -14 -3 -6 -6z"/>
<path d="M248 393 c7 -3 16 -2 19 1 4 3 -2 6 -13 5 -11 0 -14 -3 -6 -6z"/>
<path d="M458 393 c7 -3 16 -2 19 1 4 3 -2 6 -13 5 -11 0 -14 -3 -6 -6z"/>
<path d="M1345 370 c-8 -13 -1 -24 14 -19 6 3 7 10 2 18 -6 10 -10 10 -16 1z"/>
<path d="M6350 370 c0 -5 5 -10 10 -10 6 0 10 5 10 10 0 6 -4 10 -10 10 -5 0
-10 -4 -10 -10z"/>
<path d="M1260 340 c0 -5 5 -10 11 -10 5 0 7 5 4 10 -3 6 -8 10 -11 10 -2 0
-4 -4 -4 -10z"/>
<path d="M4397 233 c51 -97 63 -115 63 -92 0 13 -23 57 -76 146 -10 18 -22 33
-27 33 -4 0 14 -39 40 -87z"/>
<path d="M1390 284 c0 -8 5 -12 10 -9 6 3 10 10 10 16 0 5 -4 9 -10 9 -5 0
-10 -7 -10 -16z"/>
<path d="M5660 260 c0 -5 4 -10 9 -10 5 0 16 -3 25 -6 11 -4 16 -1 16 10 0 10
-9 16 -25 16 -14 0 -25 -4 -25 -10z"/>
<path d="M80 185 c-16 -17 -19 -25 -9 -25 12 0 11 -2 -1 -10 -12 -8 -11 -10 7
-10 12 0 29 9 37 21 8 12 19 18 26 14 7 -4 16 -1 21 6 5 8 3 17 -4 21 -23 15
-54 8 -77 -17z"/>
<path d="M560 140 c0 -5 7 -10 15 -10 8 0 15 5 15 10 0 6 -7 10 -15 10 -8 0
-15 -4 -15 -10z"/>
<path d="M1169 125 c-15 -8 -29 -23 -32 -34 -4 -18 -2 -19 14 -11 10 6 23 19
29 31 6 11 15 17 21 14 5 -4 9 -1 9 4 0 14 -9 13 -41 -4z"/>
<path d="M0 111 c0 -14 5 -18 20 -14 16 4 18 8 9 19 -16 20 -29 17 -29 -5z"/>
<path d="M630 110 c0 -5 5 -10 11 -10 5 0 7 5 4 10 -3 6 -8 10 -11 10 -2 0 -4
-4 -4 -10z"/>
<path d="M4472 100 c0 -14 2 -19 5 -12 2 6 2 18 0 25 -3 6 -5 1 -5 -13z"/>
<path d="M6236 62 c-15 -18 -15 -20 3 -40 18 -22 51 -30 51 -14 0 10 -30 72
-34 72 -2 0 -10 -8 -20 -18z"/>
<path d="M850 40 c0 -5 7 -7 15 -4 8 4 15 8 15 10 0 2 -7 4 -15 4 -8 0 -15 -4
-15 -10z"/>
<path d="M1158 45 c-3 -4 -12 -8 -20 -9 -67 -14 -60 -36 12 -36 57 0 59 1 51
22 -8 23 -31 34 -43 23z"/>
<path d="M0 30 c0 -13 17 -13 25 0 3 6 -1 10 -9 10 -9 0 -16 -4 -16 -10z"/>
</g>
</svg>
